<mxfile host="app.diagrams.net" modified="2021-02-26T04:23:33.213Z" agent="5.0 (Windows NT 10.0; Win64; x64) AppleWebKit/537.36 (KHTML, like Gecko) Chrome/88.0.4324.182 Safari/537.36" etag="j8H48opmXkrZlFdA4QJE" version="14.4.2" type="github">
  <diagram id="3iffs5BznpFNn3Ydb_YM" name="ページ1">
    <mxGraphModel dx="1038" dy="491" grid="1" gridSize="10" guides="1" tooltips="1" connect="1" arrows="1" fold="1" page="1" pageScale="1" pageWidth="827" pageHeight="1169" math="0" shadow="0">
      <root>
        <mxCell id="0" />
        <mxCell id="1" parent="0" />
        <mxCell id="lqfH3k4cmE6oizjZRTN2-33" value="" style="rounded=1;whiteSpace=wrap;html=1;dashed=1;labelBackgroundColor=none;fillColor=#dae8fc;strokeColor=#6c8ebf;opacity=60;" vertex="1" parent="1">
          <mxGeometry x="513" y="99" width="194" height="300" as="geometry" />
        </mxCell>
        <mxCell id="lqfH3k4cmE6oizjZRTN2-1" value="情シ登録済みPC" style="shape=mxgraph.signs.tech.computer;html=1;pointerEvents=1;fillColor=#000000;strokeColor=none;verticalLabelPosition=bottom;verticalAlign=top;align=center;" vertex="1" parent="1">
          <mxGeometry x="580" y="224" width="60" height="50" as="geometry" />
        </mxCell>
        <mxCell id="lqfH3k4cmE6oizjZRTN2-2" value="社内&lt;br&gt;ネットワーク" style="ellipse;shape=cloud;whiteSpace=wrap;html=1;" vertex="1" parent="1">
          <mxGeometry x="239" y="46" width="120" height="80" as="geometry" />
        </mxCell>
        <mxCell id="lqfH3k4cmE6oizjZRTN2-5" value="" style="shape=process;whiteSpace=wrap;html=1;backgroundOutline=1;size=0.3333333333333333;rotation=90;fillColor=#FFFFFF;" vertex="1" parent="1">
          <mxGeometry x="410" y="239" width="80" height="20" as="geometry" />
        </mxCell>
        <mxCell id="lqfH3k4cmE6oizjZRTN2-10" value="GigEカメラ&lt;br&gt;192.168.X.X" style="shape=image;html=1;verticalAlign=top;verticalLabelPosition=bottom;labelBackgroundColor=#ffffff;imageAspect=0;aspect=fixed;image=https://cdn2.iconfinder.com/data/icons/ios-7-icons/50/video_camera-128.png" vertex="1" parent="1">
          <mxGeometry x="590" y="309" width="50" height="50" as="geometry" />
        </mxCell>
        <mxCell id="lqfH3k4cmE6oizjZRTN2-11" value="" style="endArrow=none;html=1;entryX=0;entryY=0.5;entryDx=0;entryDy=0;exitX=0.25;exitY=0;exitDx=0;exitDy=0;" edge="1" parent="1" source="lqfH3k4cmE6oizjZRTN2-5" target="lqfH3k4cmE6oizjZRTN2-26">
          <mxGeometry width="50" height="50" relative="1" as="geometry">
            <mxPoint x="360" y="379" as="sourcePoint" />
            <mxPoint x="580" y="155" as="targetPoint" />
            <Array as="points">
              <mxPoint x="490" y="164" />
            </Array>
          </mxGeometry>
        </mxCell>
        <mxCell id="lqfH3k4cmE6oizjZRTN2-12" value="" style="endArrow=none;html=1;entryX=0;entryY=0.5;entryDx=0;entryDy=0;exitX=0.75;exitY=0;exitDx=0;exitDy=0;" edge="1" parent="1" source="lqfH3k4cmE6oizjZRTN2-5" target="lqfH3k4cmE6oizjZRTN2-10">
          <mxGeometry width="50" height="50" relative="1" as="geometry">
            <mxPoint x="470" y="239" as="sourcePoint" />
            <mxPoint x="565" y="164" as="targetPoint" />
            <Array as="points">
              <mxPoint x="480" y="334" />
            </Array>
          </mxGeometry>
        </mxCell>
        <mxCell id="lqfH3k4cmE6oizjZRTN2-15" value="" style="endArrow=none;html=1;entryX=0;entryY=0.5;entryDx=0;entryDy=0;entryPerimeter=0;exitX=0.5;exitY=0;exitDx=0;exitDy=0;" edge="1" parent="1" source="lqfH3k4cmE6oizjZRTN2-5" target="lqfH3k4cmE6oizjZRTN2-1">
          <mxGeometry width="50" height="50" relative="1" as="geometry">
            <mxPoint x="360" y="379" as="sourcePoint" />
            <mxPoint x="410" y="329" as="targetPoint" />
          </mxGeometry>
        </mxCell>
        <mxCell id="lqfH3k4cmE6oizjZRTN2-17" value="" style="endArrow=none;html=1;entryX=0.55;entryY=0.95;entryDx=0;entryDy=0;exitX=0.5;exitY=1;exitDx=0;exitDy=0;entryPerimeter=0;" edge="1" parent="1" source="lqfH3k4cmE6oizjZRTN2-5" target="lqfH3k4cmE6oizjZRTN2-2">
          <mxGeometry width="50" height="50" relative="1" as="geometry">
            <mxPoint x="422" y="240" as="sourcePoint" />
            <mxPoint x="542" y="165" as="targetPoint" />
            <Array as="points">
              <mxPoint x="305" y="250" />
            </Array>
          </mxGeometry>
        </mxCell>
        <mxCell id="lqfH3k4cmE6oizjZRTN2-18" value="" style="endArrow=none;html=1;entryX=0;entryY=0.5;entryDx=0;entryDy=0;exitX=1;exitY=0.5;exitDx=0;exitDy=0;" edge="1" parent="1" source="lqfH3k4cmE6oizjZRTN2-5" target="lqfH3k4cmE6oizjZRTN2-5">
          <mxGeometry width="50" height="50" relative="1" as="geometry">
            <mxPoint x="410" y="419" as="sourcePoint" />
            <mxPoint x="460" y="369" as="targetPoint" />
          </mxGeometry>
        </mxCell>
        <mxCell id="lqfH3k4cmE6oizjZRTN2-26" value="PLC" style="shape=process;whiteSpace=wrap;html=1;backgroundOutline=1;" vertex="1" parent="1">
          <mxGeometry x="575" y="149" width="70" height="30" as="geometry" />
        </mxCell>
        <mxCell id="lqfH3k4cmE6oizjZRTN2-28" value="&lt;span style=&quot;color: rgb(0 , 0 , 0) ; font-family: &amp;#34;helvetica&amp;#34; ; font-size: 12px ; font-style: normal ; font-weight: 400 ; letter-spacing: normal ; text-align: center ; text-indent: 0px ; text-transform: none ; word-spacing: 0px ; background-color: rgb(255 , 255 , 255) ; display: inline ; float: none&quot;&gt;192.168.X.X&lt;/span&gt;" style="text;whiteSpace=wrap;html=1;" vertex="1" parent="1">
          <mxGeometry x="575" y="179" width="90" height="20" as="geometry" />
        </mxCell>
        <mxCell id="lqfH3k4cmE6oizjZRTN2-29" value="&lt;font style=&quot;font-size: 19px&quot;&gt;中継&lt;br&gt;ルーター&lt;/font&gt;" style="text;html=1;align=center;verticalAlign=middle;resizable=0;points=[];autosize=1;" vertex="1" parent="1">
          <mxGeometry x="290" y="274.5" width="90" height="40" as="geometry" />
        </mxCell>
        <mxCell id="lqfH3k4cmE6oizjZRTN2-31" value="" style="shape=flexArrow;endArrow=classic;html=1;" edge="1" parent="1">
          <mxGeometry width="50" height="50" relative="1" as="geometry">
            <mxPoint x="411.5" y="57" as="sourcePoint" />
            <mxPoint x="451.5" y="57" as="targetPoint" />
          </mxGeometry>
        </mxCell>
        <mxCell id="lqfH3k4cmE6oizjZRTN2-32" value="&lt;font style=&quot;font-size: 15px&quot;&gt;&lt;span style=&quot;background-color: rgb(255 , 255 , 51)&quot;&gt;ルーターより内側&lt;br&gt;ローカルIPアドレス通用&lt;/span&gt;&lt;br&gt;&lt;/font&gt;" style="text;html=1;align=left;verticalAlign=middle;resizable=0;points=[];autosize=1;" vertex="1" parent="1">
          <mxGeometry x="470" y="40" width="180" height="30" as="geometry" />
        </mxCell>
        <mxCell id="lqfH3k4cmE6oizjZRTN2-36" style="edgeStyle=orthogonalEdgeStyle;rounded=0;orthogonalLoop=1;jettySize=auto;html=1;exitX=0.5;exitY=1;exitDx=0;exitDy=0;" edge="1" parent="1" source="lqfH3k4cmE6oizjZRTN2-33" target="lqfH3k4cmE6oizjZRTN2-33">
          <mxGeometry relative="1" as="geometry" />
        </mxCell>
        <mxCell id="lqfH3k4cmE6oizjZRTN2-37" value="&lt;font style=&quot;font-size: 16px&quot;&gt;&lt;u&gt;外観検査設備&lt;/u&gt;&lt;/font&gt;" style="text;html=1;align=center;verticalAlign=middle;resizable=0;points=[];autosize=1;" vertex="1" parent="1">
          <mxGeometry x="526" y="105" width="110" height="20" as="geometry" />
        </mxCell>
        <mxCell id="lqfH3k4cmE6oizjZRTN2-39" value="個人PCによる&lt;br&gt;リモート制御" style="verticalLabelPosition=bottom;html=1;verticalAlign=top;align=center;strokeColor=none;fillColor=#00BEF2;shape=mxgraph.azure.laptop;pointerEvents=1;dashed=1;labelBackgroundColor=none;opacity=60;" vertex="1" parent="1">
          <mxGeometry x="100" y="60" width="100" height="60" as="geometry" />
        </mxCell>
        <mxCell id="lqfH3k4cmE6oizjZRTN2-40" value="" style="endArrow=none;html=1;entryX=0.92;entryY=0.5;entryDx=0;entryDy=0;entryPerimeter=0;exitX=0.16;exitY=0.55;exitDx=0;exitDy=0;exitPerimeter=0;" edge="1" parent="1" source="lqfH3k4cmE6oizjZRTN2-2" target="lqfH3k4cmE6oizjZRTN2-39">
          <mxGeometry width="50" height="50" relative="1" as="geometry">
            <mxPoint x="469" y="180" as="sourcePoint" />
            <mxPoint x="519" y="130" as="targetPoint" />
          </mxGeometry>
        </mxCell>
        <mxCell id="lqfH3k4cmE6oizjZRTN2-30" value="" style="endArrow=none;dashed=1;html=1;" edge="1" parent="1">
          <mxGeometry width="50" height="50" relative="1" as="geometry">
            <mxPoint x="384" y="416" as="sourcePoint" />
            <mxPoint x="384" y="46" as="targetPoint" />
          </mxGeometry>
        </mxCell>
        <mxCell id="lqfH3k4cmE6oizjZRTN2-48" value="&lt;span style=&quot;font-size: 16px&quot;&gt;switching&lt;br&gt;&amp;nbsp;hub&lt;/span&gt;" style="text;html=1;align=center;verticalAlign=middle;resizable=0;points=[];autosize=1;" vertex="1" parent="1">
          <mxGeometry x="410" y="300" width="80" height="30" as="geometry" />
        </mxCell>
        <mxCell id="lqfH3k4cmE6oizjZRTN2-50" value="" style="shape=mxgraph.rack.cisco.cisco_1941_series_integrated_services_router;html=1;labelPosition=right;align=left;spacingLeft=15;dashed=0;shadow=0;labelBackgroundColor=none;opacity=60;rotation=90;fillColor=#FFFF00;" vertex="1" parent="1">
          <mxGeometry x="339" y="234.5" width="91" height="30" as="geometry" />
        </mxCell>
      </root>
    </mxGraphModel>
  </diagram>
</mxfile>
